<svg width="1576" height="407" viewBox="0 0 1576 407" fill="none" xmlns="http://www.w3.org/2000/svg">
<g filter="url(#filter0_d_301_28)">
<circle cx="728.303" cy="305.884" r="43.4112" transform="rotate(15 728.303 305.884)" stroke="#00D8FF" stroke-width="3"/>
<circle cx="1411.94" cy="303.288" r="32.7654" stroke="#FFEE51" stroke-width="3"/>
<rect x="1030.99" y="36.2055" width="94.5253" height="94.5253" rx="15.5953" transform="rotate(9.908 1030.99 36.2055)" stroke="#7CFF67" stroke-width="3"/>
<circle cx="405.777" cy="110.694" r="44.8502" stroke="#FF87B2" stroke-width="3"/>
<rect x="136.053" y="240.291" width="64.8694" height="64.8694" rx="10.3969" transform="rotate(-13.1099 136.053 240.291)" stroke="#FF9346" stroke-width="3"/>
<path d="M30.3995 304.807V113.101H77.5651L82.5099 148.475C87.3279 140.107 93.1602 133.007 100.007 127.175C106.854 121.342 114.841 116.778 123.97 113.481C133.099 110.185 142.988 108.537 153.639 108.537V164.831H135.761C128.154 164.831 121.054 165.719 114.461 167.494C108.121 169.269 102.543 172.185 97.7247 176.242C93.1602 180.046 89.6101 185.371 87.0743 192.218C84.7921 198.811 83.651 207.179 83.651 217.322V304.807H30.3995Z" fill="white"/>
<path d="M261.298 309.371C242.026 309.371 224.91 305.314 209.949 297.199C195.241 288.831 183.703 277.293 175.335 262.586C166.967 247.625 162.783 230.381 162.783 210.856C162.783 191.076 166.84 173.58 174.955 158.365C183.323 142.896 194.861 130.725 209.568 121.849C224.529 112.974 241.899 108.537 261.679 108.537C280.697 108.537 297.306 112.721 311.507 121.089C325.961 129.457 337.118 140.741 344.979 154.941C353.094 169.142 357.151 185.498 357.151 204.009C357.151 206.545 357.024 209.334 356.771 212.377C356.771 215.42 356.517 218.717 356.01 222.267H205.789V189.935H303.139C302.378 178.271 298.067 169.015 290.206 162.168C282.599 155.068 273.09 151.518 261.679 151.518C253.057 151.518 245.196 153.547 238.096 157.604C230.996 161.661 225.417 167.62 221.36 175.481C217.302 183.342 215.274 193.359 215.274 205.53V216.561C215.274 226.451 217.176 235.199 220.979 242.807C224.783 250.16 230.108 255.866 236.955 259.923C243.801 263.98 251.789 266.009 260.918 266.009C270.047 266.009 277.527 264.107 283.36 260.303C289.446 256.5 294.01 251.555 297.053 245.469H351.446C347.895 257.387 341.81 268.164 333.188 277.8C324.82 287.436 314.55 295.171 302.378 301.003C290.206 306.582 276.513 309.371 261.298 309.371Z" fill="white"/>
<path d="M441.426 309.371C425.704 309.371 412.518 306.835 401.867 301.764C391.47 296.438 383.736 289.465 378.665 280.843C373.847 271.968 371.438 262.205 371.438 251.555C371.438 240.144 374.354 230.001 380.186 221.126C386.019 212.25 395.021 205.277 407.192 200.205C419.364 195.134 434.579 192.598 452.837 192.598H500.002C500.002 183.469 498.734 175.989 496.199 170.156C493.916 164.07 490.113 159.506 484.788 156.463C479.716 153.42 472.869 151.899 464.248 151.899C454.865 151.899 446.877 153.927 440.284 157.984C433.945 162.042 430.014 168.128 428.493 176.242H376.763C378.284 162.549 382.849 150.757 390.456 140.868C398.064 130.725 408.207 122.864 420.886 117.285C433.818 111.453 448.399 108.537 464.628 108.537C482.632 108.537 498.227 111.579 511.413 117.665C524.853 123.751 535.123 132.5 542.223 143.911C549.577 155.322 553.254 169.395 553.254 186.132V306.466H502.269L502.284 275.899C499.749 280.97 496.452 285.535 492.395 289.592C488.591 293.649 484.154 297.199 479.082 300.242C474.01 303.032 468.305 305.187 461.965 306.708C455.879 308.483 449.033 309.371 441.426 309.371ZM454.358 268.291C460.698 268.291 466.403 267.277 471.475 265.248C476.546 262.966 480.857 259.796 484.407 255.739C487.957 251.682 490.873 247.117 493.156 242.046C495.438 236.721 496.959 231.015 497.72 224.929V224.549H459.303C451.949 224.549 445.863 225.563 441.045 227.592C436.481 229.367 433.057 232.029 430.775 235.58C428.493 238.876 427.352 242.68 427.352 246.991C427.352 251.555 428.493 255.485 430.775 258.782C433.057 262.079 436.227 264.488 440.284 266.009C444.342 267.53 449.033 268.291 454.358 268.291Z" fill="white"/>
<path d="M672.198 309.371C652.926 309.371 635.809 305.06 620.848 296.438C605.887 287.817 594.096 276.025 585.474 261.064C577.106 246.103 572.922 228.986 572.922 209.715C572.922 189.935 577.106 172.565 585.474 157.604C594.096 142.389 605.887 130.471 620.848 121.849C635.809 112.974 653.053 108.537 672.578 108.537C697.176 108.537 717.842 115.13 734.578 128.316C751.568 141.248 762.345 159.126 766.91 181.948H710.235C708.206 173.326 703.642 166.606 696.542 161.788C689.695 156.717 681.454 154.181 671.818 154.181C663.196 154.181 655.462 156.463 648.615 161.027C642.022 165.338 636.824 171.551 633.02 179.665C629.216 187.78 627.315 197.543 627.315 208.954C627.315 217.575 628.329 225.31 630.357 232.156C632.64 238.749 635.683 244.455 639.486 249.273C643.544 254.091 648.362 257.768 653.94 260.303C659.519 262.839 665.478 264.107 671.818 264.107C678.411 264.107 684.243 263.093 689.315 261.064C694.386 258.782 698.824 255.612 702.628 251.555C706.431 247.244 708.967 242.173 710.235 236.34H766.91C762.345 258.655 751.568 276.406 734.578 289.592C717.589 302.778 696.795 309.371 672.198 309.371Z" fill="white"/>
<path d="M868.553 376.172C854.86 376.172 842.815 374.016 832.418 369.705C822.275 365.395 814.414 358.294 808.836 348.405C803.257 338.515 800.467 325.076 800.467 308.086V157.604H783.419V113.101L800.42 113.112L800.378 60.2298H853.719V113.101H903.547V157.604H853.719V308.466C853.719 316.834 855.494 322.667 859.044 325.963C862.848 329.26 869.187 330.908 878.063 330.908H903.167V376.172H868.553Z" fill="white"/>
<path d="M1042.9 309.371C1033.01 309.371 1024.27 308.103 1016.66 305.567C1009.05 303.285 1002.33 299.989 996.499 295.678C990.667 291.367 985.722 286.422 981.665 280.843L981.673 304.807H928.414V30.9414H981.665V139.346C987.497 130.471 995.358 123.117 1005.25 117.285C1015.39 111.453 1027.82 108.537 1042.52 108.537C1060.02 108.537 1075.62 112.974 1089.31 121.849C1103.26 130.471 1114.16 142.389 1122.02 157.604C1130.14 172.565 1134.19 189.809 1134.19 209.334C1134.19 228.353 1130.14 245.469 1122.02 260.684C1114.16 275.899 1103.38 287.817 1089.69 296.438C1076 305.06 1060.4 309.371 1042.9 309.371ZM1029.97 262.966C1039.61 262.966 1048.23 260.684 1055.84 256.119C1063.44 251.555 1069.4 245.216 1073.71 237.101C1078.03 228.986 1080.18 219.731 1080.18 209.334C1080.18 198.684 1078.03 189.301 1073.71 181.187C1069.4 173.072 1063.44 166.733 1055.84 162.168C1048.23 157.35 1039.61 154.941 1029.97 154.941C1020.08 154.941 1011.33 157.35 1003.73 162.168C996.373 166.733 990.54 173.072 986.229 181.187C981.919 189.048 979.763 198.303 979.763 208.954C979.763 219.604 981.919 228.986 986.229 237.101C990.54 245.216 996.373 251.555 1003.73 256.119C1011.33 260.684 1020.08 262.966 1029.97 262.966Z" fill="white"/>
<path d="M1157.27 304.807V113.101H1210.52V304.807H1157.27Z" fill="white"/>
<path d="M1464.32 309.371C1446.57 309.371 1431.22 306.582 1418.29 301.003C1405.36 295.171 1395.22 287.436 1387.86 277.8C1380.51 267.911 1376.2 256.753 1374.93 244.328H1428.18C1429.2 248.892 1431.1 253.076 1433.89 256.88C1436.93 260.43 1440.86 263.346 1445.68 265.629C1450.75 267.911 1456.71 269.052 1463.56 269.052C1470.15 269.052 1475.47 268.164 1479.53 266.389C1483.84 264.361 1487.01 261.825 1489.04 258.782C1491.32 255.739 1492.46 252.443 1492.46 248.892C1492.46 243.821 1490.94 239.89 1487.9 237.101C1484.86 234.312 1480.42 232.029 1474.59 230.254C1468.75 228.479 1461.78 226.831 1453.67 225.31C1444.54 223.281 1435.54 220.999 1426.66 218.463C1418.04 215.927 1410.18 212.631 1403.08 208.573C1396.23 204.263 1390.78 198.937 1386.72 192.598C1382.66 186.258 1380.64 178.398 1380.64 169.015C1380.64 157.604 1383.68 147.334 1389.76 138.205C1396.1 129.076 1405.11 121.849 1416.77 116.524C1428.69 111.199 1442.89 108.537 1459.37 108.537C1482.7 108.537 1501.09 113.862 1514.53 124.512C1528.22 134.909 1536.33 149.109 1538.87 167.113H1488.66C1487.39 161.535 1484.22 157.224 1479.15 154.181C1474.08 151.138 1467.36 149.616 1458.99 149.616C1450.37 149.616 1443.65 151.138 1438.83 154.181C1434.27 157.224 1431.99 161.281 1431.99 166.353C1431.99 169.649 1433.51 172.692 1436.55 175.481C1439.59 178.017 1443.9 180.299 1449.48 182.328C1455.31 184.103 1462.42 185.878 1470.78 187.653C1485.74 190.696 1498.8 194.246 1509.96 198.303C1521.12 202.107 1529.87 207.686 1536.21 215.04C1542.55 222.14 1545.72 232.537 1545.72 246.23C1545.97 258.402 1542.67 269.306 1535.83 278.942C1529.23 288.578 1519.85 296.058 1507.68 301.383C1495.51 306.708 1481.05 309.371 1464.32 309.371Z" fill="white"/>
<path d="M1318.46 304.807C1304.77 304.807 1292.73 302.651 1282.33 298.34C1272.19 294.03 1264.32 286.929 1258.75 277.04C1253.17 267.15 1250.38 253.711 1250.38 236.721V157.604H1233.33V113.101L1250.33 113.112L1250.29 60.23H1303.63V113.101H1353.46V157.604H1303.63V237.101C1303.63 245.469 1305.4 251.302 1308.95 254.598C1312.76 257.895 1319.1 259.543 1327.97 259.543H1353.08V304.807H1318.46Z" fill="white"/>
<rect x="1157.25" y="30.9414" width="53.2783" height="53.2805" fill="white"/>
<circle cx="1290.58" cy="170.156" r="18.1435" fill="white"/>
<circle cx="710.159" cy="163.794" r="18.1435" fill="white"/>
<circle cx="680.737" cy="148.684" r="18.1435" fill="white"/>
<circle cx="647.658" cy="153.054" r="18.1435" fill="white"/>
<circle cx="200.353" cy="153.054" r="18.1435" fill="white"/>
<circle cx="624.277" cy="175.187" r="18.1435" fill="white"/>
<circle cx="616.212" cy="205.632" r="18.1435" fill="white"/>
<circle cx="622.914" cy="236.986" r="18.1435" fill="white"/>
<circle cx="644.45" cy="260.943" r="18.1435" fill="white"/>
<circle cx="676.48" cy="266.647" r="18.1435" fill="white"/>
<circle cx="710.159" cy="254.48" r="18.1435" fill="white"/>
<circle cx="1290.58" cy="195.236" r="18.1435" fill="white"/>
<circle cx="1290.58" cy="220.371" r="18.1435" fill="white"/>
<circle cx="1290.58" cy="245.296" r="18.1435" fill="white"/>
<circle cx="1314.67" cy="269.022" r="18.1435" fill="white"/>
<path d="M1353.12 268.55C1353.12 278.57 1354.41 288.088 1344.39 288.088C1334.37 288.088 1326.25 279.965 1326.25 269.945C1326.25 259.924 1334.37 253.811 1344.39 253.811C1354.91 253.811 1353.12 258.529 1353.12 268.55Z" fill="white"/>
</g>
<defs>
<filter id="filter0_d_301_28" x="0.399475" y="0.941406" width="1575.33" height="405.23" filterUnits="userSpaceOnUse" color-interpolation-filters="sRGB">
<feFlood flood-opacity="0" result="BackgroundImageFix"/>
<feColorMatrix in="SourceAlpha" type="matrix" values="0 0 0 0 0 0 0 0 0 0 0 0 0 0 0 0 0 0 127 0" result="hardAlpha"/>
<feOffset/>
<feGaussianBlur stdDeviation="15"/>
<feComposite in2="hardAlpha" operator="out"/>
<feColorMatrix type="matrix" values="0 0 0 0 1 0 0 0 0 1 0 0 0 0 1 0 0 0 0.2 0"/>
<feBlend mode="normal" in2="BackgroundImageFix" result="effect1_dropShadow_301_28"/>
<feBlend mode="normal" in="SourceGraphic" in2="effect1_dropShadow_301_28" result="shape"/>
</filter>
</defs>
</svg>
