<svg width="136" height="27" viewBox="0 0 136 27" fill="none" xmlns="http://www.w3.org/2000/svg">
<path d="M34.1938 20.0438V7.16636H37.3621L37.6943 9.54255C38.0179 8.98044 38.4097 8.5035 38.8696 8.11173C39.3295 7.71995 39.866 7.41335 40.4793 7.19191C41.0925 6.97047 41.7568 6.85975 42.4722 6.85975V10.6412H41.2713C40.7603 10.6412 40.2834 10.7008 39.8405 10.8201C39.4147 10.9393 39.0399 11.1352 38.7163 11.4077C38.4097 11.6632 38.1712 12.0209 38.0009 12.4809C37.8476 12.9237 37.7709 13.4858 37.7709 14.1672V20.0438H34.1938Z" fill="white"/>
<path d="M49.704 20.3504C48.4094 20.3504 47.2597 20.0779 46.2547 19.5328C45.2667 18.9707 44.4917 18.1956 43.9296 17.2077C43.3675 16.2027 43.0864 15.0444 43.0864 13.7328C43.0864 12.4042 43.359 11.2289 43.904 10.2069C44.4662 9.16781 45.2412 8.3502 46.2291 7.75402C47.2341 7.15784 48.4009 6.85975 49.7295 6.85975C51.0071 6.85975 52.1228 7.14081 53.0767 7.70292C54.0476 8.26503 54.797 9.02302 55.3251 9.97691C55.8702 10.9308 56.1427 12.0295 56.1427 13.2729C56.1427 13.4433 56.1342 13.6306 56.1172 13.835C56.1172 14.0394 56.1001 14.2609 56.0661 14.4993H45.9753V12.3275H52.5145C52.4634 11.544 52.1739 10.9223 51.6458 10.4624C51.1348 9.98542 50.4961 9.74695 49.7295 9.74695C49.1504 9.74695 48.6224 9.88322 48.1454 10.1558C47.6685 10.4283 47.2937 10.8286 47.0212 11.3566C46.7487 11.8847 46.6124 12.5575 46.6124 13.3751V14.1161C46.6124 14.7804 46.7401 15.3681 46.9956 15.8791C47.2512 16.373 47.6089 16.7563 48.0688 17.0288C48.5287 17.3014 49.0652 17.4376 49.6784 17.4376C50.2917 17.4376 50.7941 17.3099 51.1859 17.0544C51.5947 16.7989 51.9013 16.4667 52.1057 16.0579H55.7594C55.521 16.8585 55.1122 17.5824 54.533 18.2297C53.9709 18.877 53.2811 19.3965 52.4634 19.7883C51.6458 20.163 50.726 20.3504 49.704 20.3504Z" fill="white"/>
<path d="M61.8037 20.3504C60.7476 20.3504 59.8618 20.1801 59.1464 19.8394C58.448 19.4817 57.9285 19.0133 57.5878 18.4341C57.2642 17.8379 57.1024 17.1821 57.1024 16.4667C57.1024 15.7002 57.2983 15.0189 57.69 14.4227C58.0818 13.8265 58.6865 13.3581 59.5041 13.0174C60.3217 12.6767 61.3438 12.5064 62.5702 12.5064H65.7384C65.7384 11.8932 65.6533 11.3907 65.4829 10.9989C65.3296 10.5901 65.0741 10.2835 64.7164 10.0791C64.3757 9.87471 63.9158 9.7725 63.3367 9.7725C62.7064 9.7725 62.1699 9.90877 61.727 10.1813C61.3012 10.4538 61.0372 10.8627 60.935 11.4077H57.4601C57.5623 10.4879 57.8689 9.69585 58.3799 9.03154C58.8909 8.3502 59.5723 7.82215 60.4239 7.44741C61.2927 7.05564 62.2721 6.85975 63.3622 6.85975C64.5716 6.85975 65.6192 7.06416 66.5049 7.47296C67.4077 7.88177 68.0976 8.46943 68.5745 9.23595C69.0685 10.0025 69.3155 10.9478 69.3155 12.072V20.0438H65.8907L65.8917 18.102C65.7214 18.4426 65.5 18.7492 65.2274 19.0218C64.9719 19.2943 64.6738 19.5328 64.3332 19.7372C63.9925 19.9246 63.6092 20.0693 63.1834 20.1715C62.7746 20.2908 62.3147 20.3504 61.8037 20.3504ZM62.6724 17.5909C63.0982 17.5909 63.4815 17.5228 63.8222 17.3865C64.1628 17.2332 64.4524 17.0203 64.6909 16.7478C64.9293 16.4752 65.1252 16.1686 65.2785 15.828C65.4318 15.4703 65.534 15.087 65.5851 14.6782V14.6526H63.0045C62.5106 14.6526 62.1018 14.7208 61.7781 14.857C61.4715 14.9763 61.2416 15.1551 61.0883 15.3936C60.935 15.615 60.8583 15.8705 60.8583 16.1601C60.8583 16.4667 60.935 16.7307 61.0883 16.9522C61.2416 17.1736 61.4545 17.3354 61.727 17.4376C61.9996 17.5398 62.3147 17.5909 62.6724 17.5909Z" fill="white"/>
<path d="M77.3053 20.3504C76.0108 20.3504 74.861 20.0608 73.856 19.4817C72.851 18.9025 72.059 18.1105 71.4798 17.1055C70.9177 16.1005 70.6367 14.9507 70.6367 13.6562C70.6367 12.3275 70.9177 11.1607 71.4798 10.1558C72.059 9.13374 72.851 8.33316 73.856 7.75402C74.861 7.15784 76.0193 6.85975 77.3309 6.85975C78.9831 6.85975 80.3714 7.30263 81.4956 8.18838C82.6369 9.05709 83.3608 10.258 83.6674 11.791H79.8604C79.7241 11.2118 79.4175 10.7605 78.9406 10.4368C78.4806 10.0961 77.9271 9.92581 77.2798 9.92581C76.7006 9.92581 76.1811 10.0791 75.7212 10.3857C75.2783 10.6753 74.9291 11.0926 74.6736 11.6377C74.4181 12.1828 74.2904 12.8386 74.2904 13.6051C74.2904 14.1842 74.3585 14.7037 74.4948 15.1636C74.6481 15.6065 74.8525 15.9898 75.108 16.3134C75.3805 16.6371 75.7042 16.884 76.0789 17.0544C76.4536 17.2247 76.8539 17.3099 77.2798 17.3099C77.7227 17.3099 78.1144 17.2418 78.4551 17.1055C78.7958 16.9522 79.0939 16.7393 79.3494 16.4667C79.6049 16.1772 79.7752 15.8365 79.8604 15.4447H83.6674C83.3608 16.9437 82.6369 18.136 81.4956 19.0218C80.3543 19.9075 78.9576 20.3504 77.3053 20.3504Z" fill="white"/>
<path d="M90.4951 20.0438C89.5753 20.0438 88.7662 19.899 88.0678 19.6094C87.3865 19.3199 86.8584 18.8429 86.4837 18.1786C86.1089 17.5143 85.9216 16.6115 85.9216 15.4703V10.1558H84.7764V7.16636L85.9184 7.16709L85.9156 3.61485H89.4986V7.16636H92.8457V10.1558H89.4986V15.4958C89.4986 16.0579 89.6179 16.4497 89.8563 16.6711C90.1118 16.8926 90.5377 17.0033 91.1339 17.0033H92.8202V20.0438H90.4951Z" fill="white"/>
<path d="M102.207 20.3504C101.542 20.3504 100.955 20.2652 100.444 20.0949C99.9328 19.9416 99.4814 19.7201 99.0896 19.4306C98.6978 19.141 98.3657 18.8088 98.0931 18.4341L98.0937 20.0438H94.5161V1.64746H98.0931V8.92934C98.4849 8.33316 99.0129 7.83919 99.6773 7.44741C100.359 7.05564 101.193 6.85975 102.181 6.85975C103.357 6.85975 104.404 7.15784 105.324 7.75402C106.261 8.33316 106.993 9.13374 107.521 10.1558C108.066 11.1607 108.339 12.319 108.339 13.6306C108.339 14.9081 108.066 16.0579 107.521 17.0799C106.993 18.102 106.269 18.9025 105.349 19.4817C104.43 20.0608 103.382 20.3504 102.207 20.3504ZM101.338 17.2332C101.985 17.2332 102.564 17.0799 103.075 16.7733C103.586 16.4667 103.987 16.0409 104.276 15.4958C104.566 14.9507 104.711 14.329 104.711 13.6306C104.711 12.9152 104.566 12.285 104.276 11.7399C103.987 11.1948 103.586 10.769 103.075 10.4624C102.564 10.1387 101.985 9.97691 101.338 9.97691C100.674 9.97691 100.086 10.1387 99.5751 10.4624C99.0811 10.769 98.6893 11.1948 98.3997 11.7399C98.1102 12.2679 97.9654 12.8897 97.9654 13.6051C97.9654 14.3205 98.1102 14.9507 98.3997 15.4958C98.6893 16.0409 99.0811 16.4667 99.5751 16.7733C100.086 17.0799 100.674 17.2332 101.338 17.2332Z" fill="white"/>
<path d="M109.889 20.0438V7.16636H113.466V20.0438H109.889Z" fill="white"/>
<path d="M130.514 20.3504C129.322 20.3504 128.291 20.163 127.423 19.7883C126.554 19.3965 125.873 18.877 125.379 18.2297C124.885 17.5654 124.595 16.8159 124.51 15.9813H128.087C128.155 16.2879 128.283 16.5689 128.47 16.8244C128.675 17.0629 128.939 17.2588 129.262 17.4121C129.603 17.5654 130.003 17.642 130.463 17.642C130.906 17.642 131.264 17.5824 131.536 17.4632C131.826 17.3269 132.039 17.1566 132.175 16.9522C132.328 16.7478 132.405 16.5263 132.405 16.2879C132.405 15.9472 132.303 15.6832 132.098 15.4958C131.894 15.3084 131.596 15.1551 131.204 15.0359C130.812 14.9167 130.344 14.8059 129.799 14.7037C129.186 14.5675 128.581 14.4142 127.985 14.2438C127.406 14.0735 126.878 13.8521 126.401 13.5795C125.941 13.29 125.575 12.9322 125.302 12.5064C125.029 12.0806 124.893 11.5525 124.893 10.9223C124.893 10.1558 125.098 9.4659 125.506 8.85269C125.932 8.23948 126.537 7.75402 127.32 7.39631C128.121 7.03861 129.075 6.85975 130.182 6.85975C131.749 6.85975 132.984 7.21746 133.887 7.93287C134.807 8.63125 135.352 9.58513 135.522 10.7945H132.149C132.064 10.4198 131.851 10.1302 131.511 9.92581C131.17 9.7214 130.719 9.6192 130.157 9.6192C129.577 9.6192 129.126 9.7214 128.802 9.92581C128.496 10.1302 128.342 10.4027 128.342 10.7434C128.342 10.9649 128.445 11.1693 128.649 11.3566C128.853 11.527 129.143 11.6803 129.518 11.8165C129.91 11.9358 130.387 12.055 130.949 12.1742C131.954 12.3787 132.831 12.6171 133.58 12.8897C134.33 13.1452 134.917 13.5199 135.343 14.0139C135.769 14.4908 135.982 15.1892 135.982 16.109C135.999 16.9266 135.778 17.6591 135.318 18.3064C134.875 18.9536 134.245 19.4561 133.427 19.8138C132.609 20.1715 131.638 20.3504 130.514 20.3504Z" fill="white"/>
<path d="M120.717 20.0438C119.797 20.0438 118.988 19.899 118.29 19.6094C117.608 19.3199 117.08 18.8429 116.705 18.1786C116.331 17.5143 116.143 16.6115 116.143 15.4703V10.1558H114.998V7.16637L116.14 7.1671L116.137 3.61486H119.72V7.16637H123.068V10.1558H119.72V15.4958C119.72 16.0579 119.84 16.4497 120.078 16.6711C120.334 16.8926 120.759 17.0033 121.356 17.0033H123.042V20.0438H120.717Z" fill="white"/>
<rect x="109.887" y="1.64746" width="3.57886" height="3.57901" fill="white"/>
<path d="M15.5598 4.0957C15.6951 3.98382 15.8511 3.89969 16.0189 3.84809C16.1866 3.7965 16.3629 3.77847 16.5377 3.79502C16.7124 3.81156 16.8822 3.86237 17.0373 3.94454C17.1925 4.02671 17.3299 4.13863 17.4417 4.27391C18.4855 5.54072 20.5452 8.50833 21.3634 9.93133C23.2168 13.1427 24.3591 16.4324 24.6674 19.1911C24.8206 20.5687 24.7743 21.8803 24.4535 23.0048C24.1274 24.1364 23.4966 25.1611 22.438 25.7724C21.1567 26.512 19.6757 26.4086 18.3231 25.915C16.9652 25.4195 15.5662 24.4839 14.2332 23.2668C13.9754 23.0268 13.8226 22.6948 13.8082 22.3429C13.7939 21.9909 13.919 21.6476 14.1564 21.3874C14.3938 21.1272 14.7243 20.9712 15.0761 20.9534C15.4278 20.9356 15.7724 21.0573 16.0349 21.2922C17.2111 22.365 18.3142 23.0672 19.2373 23.4022C20.1676 23.7408 20.7521 23.6606 21.1014 23.4574C21.3937 23.2881 21.6895 22.9442 21.882 22.2688C22.078 21.5844 22.1404 20.6471 22.0103 19.4887C21.7519 17.1738 20.7628 14.2369 19.0467 11.2679C18.3039 9.97615 16.3307 7.13314 15.3834 5.98294C15.2715 5.84768 15.1874 5.6917 15.1358 5.52392C15.0842 5.35613 15.0662 5.17983 15.0827 5.00508C15.0993 4.83033 15.1501 4.66054 15.2323 4.50543C15.3144 4.35031 15.4263 4.2129 15.5616 4.10104" fill="#00D8FF"/>
<path d="M23.365 18.7517C23.3944 18.9248 23.3894 19.1019 23.3503 19.2731C23.3112 19.4442 23.2388 19.606 23.1372 19.7491C23.0356 19.8923 22.9068 20.014 22.7581 20.1073C22.6095 20.2007 22.4439 20.2639 22.2708 20.2932C20.6518 20.5619 16.7731 20.7837 15.132 20.7806C11.4254 20.7806 8.00398 20.1266 5.46106 19.0128C4.1905 18.4586 3.08031 17.7618 2.26772 16.9206C1.44622 16.0759 0.875977 15.0138 0.875977 13.793C0.875977 12.3139 1.70639 11.0842 2.80945 10.1575C3.91785 9.22906 5.42899 8.48593 7.14862 7.94061C7.48654 7.83332 7.85324 7.86467 8.16804 8.02776C8.32392 8.10852 8.46236 8.21919 8.57547 8.35345C8.68858 8.48771 8.77414 8.64294 8.82726 8.81027C8.88038 8.9776 8.90003 9.15376 8.88507 9.32868C8.87012 9.5036 8.82086 9.67387 8.74011 9.82975C8.65936 9.98564 8.5487 10.1241 8.41444 10.2372C8.28019 10.3503 8.12497 10.4359 7.95764 10.489C6.44295 10.9702 5.28108 11.5743 4.52908 12.207C3.76994 12.8414 3.54898 13.3885 3.54898 13.793C3.54898 14.1316 3.70045 14.5593 4.18871 15.0637C4.68411 15.5751 5.46463 16.0973 6.53204 16.5642C8.6651 17.498 11.7034 18.1075 15.132 18.1075C16.709 18.1075 20.4496 17.8909 21.8235 17.6575C21.9966 17.6281 22.1738 17.6331 22.3449 17.6722C22.516 17.7113 22.6778 17.7837 22.8209 17.8853C22.964 17.9869 23.0858 18.1157 23.1791 18.2644C23.2725 18.413 23.3356 18.5786 23.365 18.7517Z" fill="#00D8FF"/>
<path d="M23.365 18.7517C23.3944 18.9248 23.3894 19.1019 23.3503 19.2731C23.3112 19.4442 23.2388 19.606 23.1372 19.7491C23.0356 19.8923 22.9068 20.014 22.7581 20.1073C22.6095 20.2007 22.4439 20.2639 22.2708 20.2932C20.6518 20.5619 16.7731 20.7837 15.132 20.7806C11.4254 20.7806 8.00398 20.1266 5.46106 19.0128C4.1905 18.4586 3.08031 17.7618 2.26772 16.9206C1.44622 16.0759 0.875977 15.0138 0.875977 13.793C0.875977 12.3139 1.70639 11.0842 2.80945 10.1575C3.91785 9.22906 5.42899 8.48593 7.14862 7.94061C7.48654 7.83332 7.85324 7.86467 8.16804 8.02776C8.32392 8.10852 8.46236 8.21919 8.57547 8.35345C8.68858 8.48771 8.77414 8.64294 8.82726 8.81027C8.88038 8.9776 8.90003 9.15376 8.88507 9.32868C8.87012 9.5036 8.82086 9.67387 8.74011 9.82975C8.65936 9.98564 8.5487 10.1241 8.41444 10.2372C8.28019 10.3503 8.12497 10.4359 7.95764 10.489C6.44295 10.9702 5.28108 11.5743 4.52908 12.207C3.76994 12.8414 3.54898 13.3885 3.54898 13.793C3.54898 14.1316 3.70045 14.5593 4.18871 15.0637C4.68411 15.5751 5.46463 16.0973 6.53204 16.5642C8.6651 17.498 11.7034 18.1075 15.132 18.1075C16.709 18.1075 20.4496 17.8909 21.8235 17.6575C21.9966 17.6281 22.1738 17.6331 22.3449 17.6722C22.516 17.7113 22.6778 17.7837 22.8209 17.8853C22.964 17.9869 23.0858 18.1157 23.1791 18.2644C23.2725 18.413 23.3356 18.5786 23.365 18.7517Z" stroke="#00D8FF"/>
<path d="M7.01811 18.2185C6.6859 18.0951 6.41629 17.8448 6.26859 17.5227C6.12088 17.2005 6.10717 16.8329 6.23047 16.5006C6.76863 15.0482 8.43725 11.4231 9.29795 9.93323C11.1512 6.72189 13.4286 4.08795 15.6633 2.44129C16.7788 1.61974 17.9371 1.00492 19.0722 0.721567C20.2145 0.436431 21.4191 0.470291 22.4758 1.08155C23.7589 1.82112 24.4075 3.15413 24.657 4.57446C24.9083 5.99836 24.796 7.6771 24.4075 9.43959C24.3761 9.61689 24.3092 9.786 24.2108 9.93679C24.1123 10.0876 23.9845 10.2169 23.8348 10.3171C23.6852 10.4172 23.5169 10.4861 23.34 10.5195C23.163 10.553 22.9812 10.5504 22.8053 10.5118C22.6294 10.4732 22.4632 10.3995 22.3165 10.2951C22.1698 10.1907 22.0457 10.0577 21.9517 9.90414C21.8577 9.75057 21.7957 9.57959 21.7694 9.40146C21.7431 9.22333 21.7531 9.04172 21.7987 8.86754C22.139 7.31355 22.1961 6.00549 22.025 5.03603C21.8539 4.063 21.4904 3.59787 21.1411 3.3965C20.8489 3.2272 20.4016 3.14344 19.7209 3.31452C19.0295 3.48738 18.1884 3.90261 17.2492 4.59407C15.3746 5.97341 13.3253 8.30083 11.6128 11.2698C10.8639 12.5596 9.25961 16.0344 8.73596 17.4308C8.61256 17.7631 8.36227 18.0327 8.04013 18.1804C7.71798 18.3281 7.35036 18.3418 7.01811 18.2185Z" fill="#00D8FF"/>
<path d="M7.01811 18.2185C6.6859 18.0951 6.41629 17.8448 6.26859 17.5227C6.12088 17.2005 6.10717 16.8329 6.23047 16.5006C6.76863 15.0482 8.43725 11.4231 9.29795 9.93323C11.1512 6.72189 13.4286 4.08795 15.6633 2.44129C16.7788 1.61974 17.9371 1.00492 19.0722 0.721567C20.2145 0.436431 21.4191 0.470291 22.4758 1.08155C23.7589 1.82112 24.4075 3.15413 24.657 4.57446C24.9083 5.99836 24.796 7.6771 24.4075 9.43959C24.3761 9.61689 24.3092 9.786 24.2108 9.93679C24.1123 10.0876 23.9845 10.2169 23.8348 10.3171C23.6852 10.4172 23.5169 10.4861 23.34 10.5195C23.163 10.553 22.9812 10.5504 22.8053 10.5118C22.6294 10.4732 22.4632 10.3995 22.3165 10.2951C22.1698 10.1907 22.0457 10.0577 21.9517 9.90414C21.8577 9.75057 21.7957 9.57959 21.7694 9.40146C21.7431 9.22333 21.7531 9.04172 21.7987 8.86754C22.139 7.31355 22.1961 6.00549 22.025 5.03603C21.8539 4.063 21.4904 3.59787 21.1411 3.3965C20.8489 3.2272 20.4016 3.14344 19.7209 3.31452C19.0295 3.48738 18.1884 3.90261 17.2492 4.59407C15.3746 5.97341 13.3253 8.30083 11.6128 11.2698C10.8639 12.5596 9.25961 16.0344 8.73596 17.4308C8.61256 17.7631 8.36227 18.0327 8.04013 18.1804C7.71798 18.3281 7.35036 18.3418 7.01811 18.2185Z" stroke="#00D8FF"/>
<path d="M7.23877 17.3926L9.52708 15.5614C9.04985 16.9459 9.41471 17.463 11.3583 17.8497L9.06996 19.6809L7.23877 17.3926Z" fill="#00D8FF"/>
<path d="M5.57764 18.0488L4.47771 15.3322C5.66777 16.1856 6.26765 15.984 7.19429 14.2323L8.29422 16.9489L5.57764 18.0488Z" fill="#00D8FF"/>
<path d="M16.5732 2.89453L19.4613 3.39349C18.1084 3.95415 17.9632 4.56409 18.9623 6.27547L16.0743 5.78256L16.5732 2.89453Z" fill="#00D8FF"/>
<path d="M23.6914 20.124L21.8528 22.4087C22.1947 21.0024 21.5578 20.5331 19.5767 20.5798L21.405 18.2905L23.6914 20.124Z" fill="#00D8FF"/>
<path d="M16.7993 4.94727L16.8035 7.8619C16.0061 6.63362 14.7525 6.67239 13.9034 7.91258L13.8687 4.98197L16.7993 4.94727Z" fill="#00D8FF"/>
<path d="M23.3188 17.5322L21.0923 15.6265C21.5235 17.0259 21.143 17.606 19.1877 17.9283L21.4131 19.7588L23.3188 17.5322Z" fill="#00D8FF"/>
<circle cx="15.2957" cy="13.4295" r="1.32698" fill="#00D8FF"/>
</svg>
