<svg width="20" height="20" viewBox="0 0 20 20" fill="none" xmlns="http://www.w3.org/2000/svg">
<path d="M9.76107 13.8252H10.9486M9.76107 17.7835H10.9486M9.76107 1.9502H10.9486M14.1152 17.7835H15.3027C15.5127 17.7835 15.7141 17.7001 15.8625 17.5517C16.011 17.4032 16.0944 17.2018 16.0944 16.9919M14.1152 1.9502H15.3027C15.5127 1.9502 15.7141 2.0336 15.8625 2.18207C16.011 2.33054 16.0944 2.5319 16.0944 2.74186V3.92936M16.0944 11.4502V13.8252H14.1152M16.0944 7.09603V8.28353M3.42773 8.28353V7.09603M3.42773 15.8044V11.4502M3.42773 15.8044C3.42773 16.3293 3.63625 16.8327 4.00742 17.2038C4.37858 17.575 4.88199 17.7835 5.4069 17.7835H6.5944M3.42773 15.8044C3.42773 15.2795 3.63625 14.776 4.00742 14.4049C4.37858 14.0337 4.88199 13.8252 5.4069 13.8252H6.5944M3.42773 3.92936C3.42773 3.40445 3.63625 2.90105 4.00742 2.52988C4.37858 2.15871 4.88199 1.9502 5.4069 1.9502H6.5944" stroke="white" stroke-width="1.58333" stroke-linecap="round" stroke-linejoin="round"/>
</svg>
