<svg width="22" height="22" viewBox="0 0 22 22" fill="none" xmlns="http://www.w3.org/2000/svg">
<g clip-path="url(#clip0_135_1108)">
<path d="M4.48421 3.34725C4.48421 2.85883 4.88015 2.46289 5.36857 2.46289H7.13729C7.62571 2.46289 8.02165 2.85883 8.02165 3.34725V4.23161H7.13729C6.64887 4.23161 6.25293 4.62755 6.25293 5.11597V5.11597C6.25293 5.60438 5.85699 6.00033 5.36857 6.00033H4.48421V3.34725ZM4.48421 11.3065H3.59985C3.11144 11.3065 2.71549 10.9105 2.71549 10.4221V6.88468C2.71549 6.39627 3.11144 6.00033 3.59985 6.00033H4.48421V11.3065ZM6.25293 13.0752H5.36857C4.88015 13.0752 4.48421 12.6793 4.48421 12.1908V11.3065H5.36857C5.85699 11.3065 6.25293 11.7024 6.25293 12.1908V13.0752ZM8.02165 14.8439V13.9596C8.02165 13.4711 7.62571 13.0752 7.13729 13.0752H6.25293V14.8439H2.71549V13.9596C2.71549 13.4711 2.31955 13.0752 1.83114 13.0752V13.0752C1.34272 13.0752 0.946777 13.4711 0.946777 13.9596V13.9596C0.946777 14.448 1.34272 14.8439 1.83114 14.8439H2.71549V15.7283C2.71549 16.2167 3.11144 16.6126 3.59985 16.6126H6.25293V19.2657C6.25293 19.7541 6.64887 20.1501 7.13729 20.1501V20.1501C7.62571 20.1501 8.02165 19.7541 8.02165 19.2657V16.6126H8.90601C9.39442 16.6126 9.79036 16.2167 9.79036 15.7283V15.7283C9.79036 15.2399 9.39442 14.8439 8.90601 14.8439H8.02165ZM8.02165 14.8439V16.6126H6.25293V14.8439H8.02165ZM13.3278 4.23161V5.11597C13.3278 5.60439 12.9319 6.00033 12.4434 6.00033H8.90601C8.41759 6.00033 8.02165 5.60438 8.02165 5.11597V4.23161H13.3278ZM16.8652 6.00033H15.9809C15.4925 6.00033 15.0965 5.60438 15.0965 5.11597V5.11597C15.0965 4.62755 14.7006 4.23161 14.2122 4.23161H13.3278V3.34725C13.3278 2.85883 13.7237 2.46289 14.2122 2.46289H15.9809C16.4693 2.46289 16.8652 2.85883 16.8652 3.34725V6.00033ZM16.8652 11.3065V6.00033H17.7496C18.238 6.00033 18.634 6.39627 18.634 6.88468V10.4221C18.634 10.9105 18.238 11.3065 17.7496 11.3065H16.8652ZM15.0965 13.0752V12.1908C15.0965 11.7024 15.4925 11.3065 15.9809 11.3065H16.8652V12.1908C16.8652 12.6793 16.4693 13.0752 15.9809 13.0752H15.0965ZM13.3278 14.8439V13.9596C13.3278 13.4711 13.7237 13.0752 14.2122 13.0752H15.0965V13.9596C15.0965 14.448 14.7006 14.8439 14.2122 14.8439H13.3278ZM13.3278 16.6126H12.4434C11.955 16.6126 11.5591 16.2167 11.5591 15.7283V15.7283C11.5591 15.2399 11.955 14.8439 12.4434 14.8439H13.3278V16.6126ZM13.3278 16.6126H14.2122C14.7006 16.6126 15.0965 17.0086 15.0965 17.497V19.2657C15.0965 19.7541 14.7006 20.1501 14.2122 20.1501V20.1501C13.7237 20.1501 13.3278 19.7541 13.3278 19.2657V16.6126Z" fill="white"/>
</g>
<defs>
<clipPath id="clip0_135_1108">
<rect x="0.0625" y="0.694336" width="21.2246" height="21.2246" rx="10.6123" fill="white"/>
</clipPath>
</defs>
</svg>
