<svg width="23" height="23" viewBox="0 0 23 23" fill="none" xmlns="http://www.w3.org/2000/svg">
<path fill-rule="evenodd" clip-rule="evenodd" d="M11.5488 2.14648C9.09558 2.14648 6.7428 3.12104 5.00809 4.85575C3.27338 6.59046 2.29883 8.94323 2.29883 11.3965C2.29883 13.8497 3.27338 16.2025 5.00809 17.9372C6.7428 19.6719 9.09558 20.6465 11.5488 20.6465C14.0021 20.6465 16.3549 19.6719 18.0896 17.9372C19.8243 16.2025 20.7988 13.8497 20.7988 11.3965C20.7988 8.94323 19.8243 6.59046 18.0896 4.85575C16.3549 3.12104 14.0021 2.14648 11.5488 2.14648ZM0.798828 11.3965C0.798828 5.45948 5.61183 0.646484 11.5488 0.646484C17.4858 0.646484 22.2988 5.45948 22.2988 11.3965C22.2988 17.3335 17.4858 22.1465 11.5488 22.1465C5.61183 22.1465 0.798828 17.3335 0.798828 11.3965ZM8.10183 15.7945C9.09723 15.0506 10.3062 14.648 11.5488 14.6465C12.8338 14.6465 14.0228 15.0735 14.9958 15.7945C15.0774 15.8522 15.1466 15.9257 15.1993 16.0105C15.2521 16.0954 15.2874 16.1899 15.3031 16.2886C15.3188 16.3873 15.3147 16.4881 15.2909 16.5851C15.2671 16.6822 15.2241 16.7735 15.1646 16.8537C15.105 16.9339 15.03 17.0014 14.944 17.0523C14.858 17.1031 14.7627 17.1362 14.6637 17.1497C14.5647 17.1632 14.464 17.1568 14.3675 17.1308C14.271 17.1048 14.1807 17.0598 14.1018 16.9985C13.3649 16.4467 12.4694 16.1479 11.5488 16.1465C10.6282 16.1479 9.73273 16.4467 8.99583 16.9985C8.91697 17.0598 8.82665 17.1048 8.73017 17.1308C8.63369 17.1568 8.53299 17.1632 8.43398 17.1497C8.33498 17.1362 8.23967 17.1031 8.15365 17.0523C8.06763 17.0014 7.99264 16.9339 7.93307 16.8537C7.87351 16.7735 7.83057 16.6822 7.80679 16.5851C7.783 16.4881 7.77885 16.3873 7.79457 16.2886C7.81029 16.1899 7.84557 16.0954 7.89833 16.0105C7.9511 15.9257 8.02028 15.8522 8.10183 15.7945Z" fill="white"/>
<path d="M15.5488 9.89648C15.5488 10.7245 15.1008 11.3965 14.5488 11.3965C13.9968 11.3965 13.5488 10.7245 13.5488 9.89648C13.5488 9.06848 13.9968 8.39648 14.5488 8.39648C15.1008 8.39648 15.5488 9.06848 15.5488 9.89648ZM9.54883 9.89648C9.54883 10.7245 9.10083 11.3965 8.54883 11.3965C7.99683 11.3965 7.54883 10.7245 7.54883 9.89648C7.54883 9.06848 7.99683 8.39648 8.54883 8.39648C9.10083 8.39648 9.54883 9.06848 9.54883 9.89648Z" fill="white"/>
</svg>
