<svg width="254" height="116" viewBox="0 0 254 116" fill="none" xmlns="http://www.w3.org/2000/svg">
<g filter="url(#filter0_d_313_24)">
<path d="M35.8687 22.8037C33.6712 23.1572 31.7042 24.3692 30.4004 26.1731C29.0965 27.9769 28.5626 30.2248 28.9162 32.4223L34.2483 65.5646C34.6019 67.7621 35.8139 69.7291 37.6177 71.033C39.4215 72.3369 41.6695 72.8707 43.8669 72.5172L77.0093 67.1851C79.2067 66.8315 81.1738 65.6195 82.4776 63.8157C83.7815 62.0118 84.3154 59.7639 83.9618 57.5664L78.6297 24.4241C78.2761 22.2266 77.0641 20.2596 75.2603 18.9557C73.4564 17.6519 71.2085 17.118 69.0111 17.4715L35.8687 22.8037ZM61.9251 55.601C64.1714 56.8829 66.2833 57.3535 68.261 57.0126C69.4762 56.8171 70.372 56.4444 70.9484 55.8946C71.2187 55.6501 71.4206 55.3395 71.5343 54.9933C71.648 54.6471 71.6696 54.2773 71.597 53.9202C71.5381 53.5275 71.3937 53.1524 71.174 52.8216C70.9543 52.4907 70.6647 52.2121 70.3256 52.0054C69.5865 51.5444 68.269 51.1746 66.373 50.896C64.1052 50.6186 62.3039 50.0773 60.9692 49.272C59.6567 48.4632 58.8461 47.1703 58.5375 45.3934C58.2671 43.7124 58.7697 42.1874 60.0455 40.8186C61.2808 39.4563 63.0032 38.5974 65.2127 38.2419C68.2912 37.7466 70.8818 38.0986 72.9845 39.2979L71.3906 42.9515C70.529 42.4794 69.5808 42.1866 68.603 42.091C67.7145 41.9442 66.809 41.9323 65.9169 42.0557C64.8674 42.2245 64.0578 42.5521 63.4882 43.0386C62.9244 43.526 62.6929 44.0827 62.7936 44.7087C62.9044 45.3973 63.3828 45.9229 64.2288 46.2854C65.0773 46.6287 66.4769 46.9334 68.4275 47.1994C70.7832 47.5061 72.5266 48.1399 73.6577 49.1007C74.7889 50.0615 75.4929 51.4026 75.7699 53.1242C76.0534 54.8863 75.6193 56.5144 74.4676 58.0087C73.3329 59.4795 71.4944 60.4506 68.9522 60.9219C65.6104 61.4596 62.6541 60.9067 60.0833 59.2633L61.9251 55.601ZM46.9355 59.8203C47.6488 60.1211 48.4612 60.1981 49.3726 60.0515C50.3245 59.8984 51.0704 59.4978 51.6103 58.85C52.1451 58.1822 52.301 57.1494 52.078 55.7516L49.7221 41.1082L53.8234 40.4483L56.3064 55.8816C56.6302 58.2813 56.2185 60.1137 55.0715 61.3786C54.4491 62.1035 53.6848 62.6932 52.8257 63.1113C52.0294 63.501 51.1811 63.7739 50.3069 63.9217C48.7879 64.1661 47.3987 64.1195 46.1392 63.7819C44.7926 63.4187 43.5781 62.5856 42.4958 61.2826L44.9752 58.4838C45.614 59.1083 46.2674 59.5537 46.9355 59.8203Z" fill="white"/>
</g>
<g filter="url(#filter1_d_313_24)">
<path d="M80.1867 45.2253L77.9116 61.8546C77.2833 66.4467 80.4966 70.6786 85.0887 71.3069L118.347 75.8571C122.939 76.4853 127.171 73.272 127.8 68.68L132.35 35.4213C132.978 30.8292 129.765 26.5973 125.173 25.969L91.914 21.4188C87.322 20.7906 83.0901 24.0039 82.4618 28.5959L80.1867 45.2253ZM120.662 48.7299C121.818 49.1706 122.819 49.9442 123.537 50.9528C123.933 51.4977 124.262 52.0888 124.516 52.7131C124.507 52.7769 122.153 53.9388 120.728 54.5733C120.676 54.5987 120.513 54.365 120.344 54.0207C120.161 53.5743 119.868 53.1816 119.492 52.8792C119.116 52.5768 118.67 52.3746 118.194 52.2914C116.696 51.9807 115.613 52.6417 115.443 53.9478C115.386 54.2711 115.416 54.6035 115.531 54.9112C115.767 55.647 116.33 56.1427 118.155 57.2462C121.516 59.2714 122.906 60.4943 123.659 62.065C124.502 63.8067 124.385 66.4171 123.406 68.2265C122.323 70.1927 120.175 71.334 117.345 71.4225C116.062 71.3945 114.788 71.2064 113.551 70.8628C111.671 70.2878 110.023 69.1296 108.844 67.5557C108.455 66.9861 107.742 65.5427 107.811 65.4546C107.971 65.3659 108.138 65.2895 108.309 65.226L110.289 64.4236L111.836 63.7895L112.074 64.2734C112.481 65.065 113.04 65.7687 113.718 66.3442C115.2 67.4007 117.395 67.5831 118.605 66.7607C119.016 66.4548 119.306 66.0147 119.425 65.5169C119.545 65.0192 119.486 64.4953 119.259 64.0366C118.935 63.4272 118.201 62.8511 116.103 61.572C113.681 60.1103 112.665 59.2721 111.801 58.0398C111.267 57.2315 110.916 56.3162 110.773 55.3581C110.717 54.278 110.835 53.1959 111.122 52.1533C111.993 49.7395 114.095 48.2584 116.887 48.1159C118.169 48.1326 119.441 48.3423 120.66 48.7379L120.662 48.7299ZM108.666 49.2191L108.386 51.2626L101.909 50.3764L99.3844 68.827L94.7907 68.1985L97.3155 49.7439L90.8221 48.8555L91.0951 46.86C91.1715 46.1706 91.2842 45.4858 91.4327 44.8083C91.461 44.7796 95.4303 45.3064 100.218 45.9696L108.923 47.1605L108.666 49.2191Z" fill="white"/>
</g>
<g filter="url(#filter2_d_313_24)">
<path fill-rule="evenodd" clip-rule="evenodd" d="M136.09 20.8999L162.615 17.4413C169.078 16.5986 175.001 21.1548 175.843 27.6178L179.302 54.1432C180.145 60.6063 175.588 66.5288 169.125 67.3715L142.6 70.8301C136.137 71.6728 130.215 67.1166 129.372 60.6536L125.913 34.1282C125.07 27.6651 129.627 21.7426 136.09 20.8999ZM151.234 33.6048C146.553 34.2152 143.933 36.9371 143.373 41.7707C144.823 39.2013 146.757 38.0566 149.173 38.3365C150.552 38.4963 151.633 39.3406 152.829 40.2753C154.778 41.7978 157.034 43.5599 161.384 42.9926C166.065 42.3822 168.686 39.6603 169.246 34.8268C167.795 37.3964 165.862 38.5411 163.445 38.2609C162.066 38.1011 160.985 37.2568 159.789 36.3222C157.84 34.7997 155.585 33.0376 151.234 33.6048ZM143.831 45.2814C139.15 45.8917 136.529 48.6137 135.969 53.4472C137.42 50.8776 139.353 49.7329 141.77 50.0131C143.149 50.1728 144.23 51.0172 145.426 51.9518C147.375 53.4743 149.63 55.2364 153.981 54.6691C158.662 54.0588 161.282 51.3368 161.842 46.5033C160.392 49.0729 158.458 50.2176 156.042 49.9374C154.663 49.7777 153.582 48.9333 152.386 47.9987C150.437 46.4762 148.181 44.7141 143.831 45.2814Z" fill="white"/>
</g>
<g filter="url(#filter3_d_313_24)">
<path d="M175.916 20.9453L171.045 62.9602C170.799 65.0827 171.406 67.216 172.733 68.8908C174.06 70.5657 175.997 71.6448 178.12 71.8909L212.132 75.8343C214.254 76.0804 216.388 75.4733 218.063 74.1465C219.737 72.8196 220.817 70.8818 221.063 68.7594L225.006 34.7473C225.252 32.6248 224.645 30.4915 223.318 28.8167C221.991 27.1418 220.054 26.0627 217.931 25.8166L175.916 20.9453ZM202.466 51.6497C205.717 52.0266 206.957 54.4514 206.63 57.7083L203.279 57.3198C203.398 56.7254 203.324 56.0578 203.182 55.5344C203.028 55.111 202.645 54.9146 202.095 54.8508C201.145 54.7406 200.581 55.2328 200.442 56.4333C200.252 57.6279 200.827 58.3535 201.781 58.8696C203.212 59.6438 204.953 60.8087 205.47 62.0345C205.965 63.0044 206.132 64.1896 205.97 65.5901C205.581 68.9413 203.443 70.7717 200.142 70.3889C196.69 69.9888 195.389 67.6583 195.739 64.2012L199.24 64.6072C199.049 66.2578 199.507 67.1218 200.607 67.2494C201.157 67.3132 201.575 67.2095 201.815 66.8826C202.291 66.2788 202.6 64.4897 202.081 63.7199C201.529 62.7942 200.325 62.2491 199.527 61.7003C198.44 61.0168 197.665 60.2679 197.202 59.4539C196.789 58.6456 196.666 57.5163 196.823 56.1658C197.171 53.1647 199.371 51.2401 202.466 51.6497ZM213.72 52.9545C217.021 53.3372 218.261 55.762 217.934 59.019L214.583 58.6304C214.652 58.0302 214.628 57.3684 214.436 56.8392C214.282 56.4159 213.949 56.2252 213.399 56.1614C212.399 56.0454 211.835 56.5376 211.696 57.7381C211.556 58.9385 212.081 59.6583 213.085 60.1802C214.466 60.9486 216.257 62.1193 216.774 63.3451C217.219 64.3092 217.386 65.4944 217.224 66.8949C216.885 70.2519 214.747 72.0823 211.446 71.6995C207.944 71.2936 206.649 68.913 206.993 65.506L210.494 65.912C210.315 67.4625 210.761 68.4266 211.861 68.5542C212.411 68.618 212.829 68.5143 213.069 68.1874C213.595 67.5894 213.904 65.8003 213.335 65.0247C212.833 64.1048 211.629 63.5597 210.781 63.0052C209.694 62.3216 208.919 61.5728 208.506 60.7645C208.093 59.9562 207.97 58.8269 208.127 57.4764C208.425 54.4695 210.625 52.5449 213.72 52.9545ZM190.727 50.3266C192.21 50.4859 193.636 51.0821 194.407 52.0839C195.203 53.0886 195.535 54.5971 195.276 56.3919L191.575 55.9628C191.735 55.0183 191.566 54.289 190.906 53.8577C190.291 53.4822 189.317 53.5721 188.998 54.1433C188.684 54.6645 188.458 55.2974 188.439 55.9034L187.592 63.206C187.412 64.7565 187.87 65.6206 188.92 65.7424C189.141 65.7779 189.368 65.7585 189.579 65.6858C189.791 65.6131 189.982 65.4894 190.134 65.3255C190.542 64.866 190.668 64.2215 190.687 63.6155L194.389 64.0447C194.194 67.4691 191.683 69.4589 188.387 69.0261C185.186 68.655 183.394 66.6224 183.833 63.277L184.807 54.874C185.004 53.1734 185.655 51.9309 186.704 51.1908C187.703 50.4449 189.243 50.1673 190.727 50.3266Z" fill="white"/>
</g>
<defs>
<filter id="filter0_d_313_24" x="0.835793" y="0.580968" width="111.206" height="111.206" filterUnits="userSpaceOnUse" color-interpolation-filters="sRGB">
<feFlood flood-opacity="0" result="BackgroundImageFix"/>
<feColorMatrix in="SourceAlpha" type="matrix" values="0 0 0 0 0 0 0 0 0 0 0 0 0 0 0 0 0 0 127 0" result="hardAlpha"/>
<feOffset dy="11.1895"/>
<feGaussianBlur stdDeviation="13.9869"/>
<feComposite in2="hardAlpha" operator="out"/>
<feColorMatrix type="matrix" values="0 0 0 0 0 0 0 0 0 0 0 0 0 0 0 0 0 0 0.5 0"/>
<feBlend mode="normal" in2="BackgroundImageFix" result="effect1_dropShadow_313_24"/>
<feBlend mode="normal" in="SourceGraphic" in2="effect1_dropShadow_313_24" result="shape"/>
</filter>
<filter id="filter1_d_313_24" x="49.8594" y="4.55655" width="110.543" height="110.542" filterUnits="userSpaceOnUse" color-interpolation-filters="sRGB">
<feFlood flood-opacity="0" result="BackgroundImageFix"/>
<feColorMatrix in="SourceAlpha" type="matrix" values="0 0 0 0 0 0 0 0 0 0 0 0 0 0 0 0 0 0 127 0" result="hardAlpha"/>
<feOffset dy="11.1895"/>
<feGaussianBlur stdDeviation="13.9869"/>
<feComposite in2="hardAlpha" operator="out"/>
<feColorMatrix type="matrix" values="0 0 0 0 0 0 0 0 0 0 0 0 0 0 0 0 0 0 0.5 0"/>
<feBlend mode="normal" in2="BackgroundImageFix" result="effect1_dropShadow_313_24"/>
<feBlend mode="normal" in="SourceGraphic" in2="effect1_dropShadow_313_24" result="shape"/>
</filter>
<filter id="filter2_d_313_24" x="97.8391" y="0.556554" width="109.537" height="109.537" filterUnits="userSpaceOnUse" color-interpolation-filters="sRGB">
<feFlood flood-opacity="0" result="BackgroundImageFix"/>
<feColorMatrix in="SourceAlpha" type="matrix" values="0 0 0 0 0 0 0 0 0 0 0 0 0 0 0 0 0 0 127 0" result="hardAlpha"/>
<feOffset dy="11.1895"/>
<feGaussianBlur stdDeviation="13.9869"/>
<feComposite in2="hardAlpha" operator="out"/>
<feColorMatrix type="matrix" values="0 0 0 0 0 0 0 0 0 0 0 0 0 0 0 0 0 0 0.5 0"/>
<feBlend mode="normal" in2="BackgroundImageFix" result="effect1_dropShadow_313_24"/>
<feBlend mode="normal" in="SourceGraphic" in2="effect1_dropShadow_313_24" result="shape"/>
</filter>
<filter id="filter3_d_313_24" x="143.018" y="4.16105" width="110.016" height="110.89" filterUnits="userSpaceOnUse" color-interpolation-filters="sRGB">
<feFlood flood-opacity="0" result="BackgroundImageFix"/>
<feColorMatrix in="SourceAlpha" type="matrix" values="0 0 0 0 0 0 0 0 0 0 0 0 0 0 0 0 0 0 127 0" result="hardAlpha"/>
<feOffset dy="11.1895"/>
<feGaussianBlur stdDeviation="13.9869"/>
<feComposite in2="hardAlpha" operator="out"/>
<feColorMatrix type="matrix" values="0 0 0 0 0 0 0 0 0 0 0 0 0 0 0 0 0 0 0.5 0"/>
<feBlend mode="normal" in2="BackgroundImageFix" result="effect1_dropShadow_313_24"/>
<feBlend mode="normal" in="SourceGraphic" in2="effect1_dropShadow_313_24" result="shape"/>
</filter>
</defs>
</svg>
